<svg width="17" height="17" viewBox="0 0 17 17" fill="none" xmlns="http://www.w3.org/2000/svg">
<path d="M2.54999 16.9999C2.08249 16.9999 1.68228 16.8335 1.34937 16.5005C1.01645 16.1676 0.849996 15.7674 0.849996 15.2999V5.71622C0.594997 5.56039 0.389581 5.35852 0.233749 5.1106C0.0779163 4.86268 0 4.57581 0 4.24998V1.69999C0 1.23249 0.166458 0.832288 0.499373 0.499373C0.832288 0.166458 1.23249 0 1.69999 0H15.2999C15.7674 0 16.1676 0.166458 16.5005 0.499373C16.8335 0.832288 16.9999 1.23249 16.9999 1.69999V4.24998C16.9999 4.57581 16.922 4.86268 16.7662 5.1106C16.6103 5.35852 16.4049 5.56039 16.1499 5.71622V15.2999C16.1499 15.7674 15.9835 16.1676 15.6505 16.5005C15.3176 16.8335 14.9174 16.9999 14.4499 16.9999H2.54999ZM2.54999 5.94997V15.2999H14.4499V5.94997H2.54999ZM1.69999 4.24998H15.2999V1.69999H1.69999V4.24998ZM5.94997 10.2H11.0499V8.49996H5.94997V10.2Z" fill="white" fill-opacity="0.8"/>
</svg>
